# xmcd CD database file
#
# Track frame offsets:
#	150
#	19276
#	38156
#	49903
#	61045
#	75686
#	118880
#	126463
#	237461
#
# Disc length: 3349 seconds
#
# Revision: 0
# Processed by: cddbd v1.5.2PL0 Copyright (c) Steve Scherf et al.
# Submitted via: CDex 1.70beta2
#
DISCID=7c0d1309
DTITLE=BIOastral - Michel Haygen
DYEAR=2001
DGENRE=New Age
TTITLE0=Keops
TTITLE1=El faraón triste
TTITLE2=El vuelo de Horus
TTITLE3=Bivium
TTITLE4=Aster Illuminatus
TTITLE5=Madri oculto
TTITLE6=Spectrum aeris
TTITLE7=Astralia
TTITLE8=Astralia (radio)
EXTD=YEAR: 2001
EXTT0=
EXTT1=
EXTT2=
EXTT3=
EXTT4=
EXTT5=
EXTT6=
EXTT7=
EXTT8=
PLAYORDER=
